# xmcd CD database file
#
# Track frame offsets:
#	150
#	14785
#	26824
#	39630
#	54030
#	67814
#	83765
#	98720
#	116128
#	128831
#	141024
#
# Disc length: 2129 seconds
#
# Revision: 0
# Processed by: cddbd v1.5.2PL0 Copyright (c) Steve Scherf et al.
# Submitted via: CDex 1.70beta2
#
DISCID=8e084f0b
DTITLE=David Ball - Sparkle City
DYEAR=2010
DGENRE=Country
TTITLE0=Hot Water Pipe
TTITLE1=Country Boy Boogie
TTITLE2=What'll I Do If I Don't Have You
TTITLE3=Tulsa
TTITLE4=Maybe Tomorrow
TTITLE5=Along For The Ride
TTITLE6=On Top Of The World
TTITLE7=Alabama
TTITLE8=Smiling In The Morning
TTITLE9=Houston
TTITLE10=So Long
EXTD=YEAR: 2010
EXTT0=
EXTT1=
EXTT2=
EXTT3=
EXTT4=
EXTT5=
EXTT6=
EXTT7=
EXTT8=
EXTT9=
EXTT10=
PLAYORDER=
